<svg version="1" xmlns="http://www.w3.org/2000/svg" width="1189.333" height="1189.333"
     viewBox="0 0 892.000000 892.000000">
    <path d="M280.2 1.7c-.9 1.9-.9 2.9.1 5.3.5 1.4 2.9 8.8 3.2 10 .1.3.6 1.6 1.2 3s2.2 5.9 3.6 10 4.8 14 7.7 22c2.8 8 5.5 15.6 6 17 .7 2.2 8.5 24.2 20 56 7.7 21.4 17 46.5 21.5 58.5 1.5 3.8 3.9 10.4 5.5 14.6 1.5 4.2 3.4 8.7 4.1 10 .7 1.3 1.1 2.4 1 2.4-.3 0 .6 2.3 4.6 12.5 2.4 6.1 11 24.1 13.6 28.5.7 1.1 3.3 5.8 5.8 10.5 2.6 4.7 5.5 10.1 6.6 12 6.5 11.5 26.6 48.4 28.1 51.5.9 1.6 2.4 4.2 3.4 5.7 1.1 1.6 1.7 2.8 1.5 2.8-.6 0 9.8 19 11.2 20.7.6.7 1.1 1.8 1.1 2.5s.9 2.4 2 3.8 2 3.3 2 4.2c0 1 .4 1.8.9 1.8s1.4 1.2 2 2.7c.5 1.6 2.9 6.2 5.1 10.3 5.9 10.6 7.1 12.9 6.8 13.2-.2.2.6 1.6 1.8 3.3 1.1 1.6 3.4 5.7 5.1 9 11.5 22.7 15.4 30.1 16 31 .9 1.2 12.8 25.1 27.6 55.5 20 40.9 33.8 56.3 62.1 69.5 5 2.3 12.5 5.4 16.6 6.8 24.9 8.4 53.6 23.5 66.1 34.6 7.2 6.5 14.9 14.6 14.9 15.7 0 .7-1.7 3.1-3.8 5.3-6.5 7-14.8 5.9-23.3-3.2-2.1-2.3-6.3-6.8-9.3-10-5-5.4-5.6-5.7-7.5-4.5-1.2.7-2.1 2.2-2.1 3.3 0 3.9 16.9 21.9 23.5 25 7.2 3.4 19.3 1.8 22.7-3 1.4-2 1.6.1.3 3.9-1.5 4.4-5.6 9.8-10 13.2l-3 2.3-4.7-4.2c-5.1-4.6-12.9-11.4-16.8-14.7-1.4-1.2-3.4-2.9-4.5-3.8-1.1-1-3.8-3.1-6-4.7s-4.2-3.2-4.5-3.5c-.3-.3-2.1-1.7-4-3s-3.7-2.7-4-3c-1-1.2-13.1-8.3-23.6-14-6.9-3.6-8.3-4.5-14.4-8.5-7.1-4.7-8.5-5.9-17.2-15.9-2.6-3-2.6-3.1-4.7-1.2-1.2 1.1-2.1 2.6-2.1 3.4 0 4.8 16.1 19.9 26 24.5.8.4 3.3 1.8 5.5 3 2.2 1.3 7.2 4 11 6.1 8.9 4.8 27.7 18.3 35.1 25.1.6.5 2.9 2.5 5.2 4.3 8.1 6.6 16.5 14.3 16 14.7-1.8 1.6-7.4 3.5-10.3 3.5-5.5 0-10.1-2.4-16.2-8.5-6.3-6.3-9.8-7.2-10.9-2.9-.6 2.2.2 3.4 4.7 8.1 3 3 7.2 6.5 9.4 7.8 4.9 2.9 13.6 4.1 19 2.6 2.1-.6 4-.9 4.2-.8.9 1-6.3 10-9.8 12.4-3.5 2.3-5.5 2.8-10.8 3-7.4.2-9.7-.7-10.6-3.9-.4-1.3-2-5.9-3.8-10.3-5.9-15.3-12.3-25.2-23.1-36-8-7.9-12.7-10.9-27.9-17.5-5.6-2.4-7.9-4.3-20.3-16.8-5.1-5-9.6-9.2-9.9-9.2-.4 0-1.5.5-2.6 1-3.9 2.1-2.2 5.1 9.5 16.4 6.2 6.1 12 11.5 12.8 12.1 1.4 1 5 2.8 17.9 8.9 5.2 2.4 9.6 5.5 14.2 10 7.1 6.9 16.4 20.2 19.3 27.6.9 2.5 2.1 4.9 2.6 5.4 1.6 1.8.8 3.6-2.4 5.6-4.3 2.6-8.1 1.8-13-2.5-2.1-1.9-4.2-3.5-4.6-3.5-1.2 0-4.2 3.4-4.2 4.8 0 1.9 6.1 7.3 10.5 9.3 5.1 2.4 9.1 2.4 13.8 0 4.9-2.5 4.9-.4 0 3.5-7.2 5.8-10.7 7.3-19 8-4.2.4-5-.3-4.4-3.9 0-.4-.3-.7-.8-.7-.7 0-1.4-1.3-2.5-5-1.3-4.3-14.4-28.3-15.8-28.8-.4-.2-.8-.8-.8-1.4 0-1.3-6.4-9.3-10.4-13-1.6-1.5-5.7-4.1-9-5.9-15.7-8.2-24.4-16.1-29.2-26.3-3.1-6.6-4-7.6-6.6-7.6-9-.1 3.2 22.6 17.2 32 1.9 1.3 3.7 2.7 4 3 .3.3 3.6 2.2 7.3 4 11.4 5.8 15.9 10.4 24.8 25.7 4 6.7 8.9 16.7 8.9 18 0 .5-1.4 1.7-3 2.7-3.6 2.1-7.7 1.1-12-2.8-3.5-3.2-5.7-3.8-7.5-2-2.3 2.3-1.9 4 1.8 7.5 6.6 6.4 14.6 8.3 20.5 4.8 4.1-2.3 3.9-2.3 5.2.2 1.6 2.8-.9 5.4-8 8.7-7.3 3.4-16.7 3.6-22.5.4-6.2-3.4-7.9-5.2-10.4-11.7-3.2-8.2-9.4-20.9-10.3-21.3-.4-.2-.8-.9-.8-1.6 0-1.3-8.6-12.3-12.9-16.6-4.2-4.2-11.3-8.7-22.2-14-10.7-5.2-13-5.8-14.6-3.7-2.5 3.4-.9 5 11.8 11.3 18 9 25.6 16.4 34.8 33.7 3.7 6.9 3.9 7.6 2.2 8.2-1.1.3-2.5.4-3.2.3-1.7-.4-6.9-5.9-6.9-7.4 0-.6-1.1-2.1-2.5-3.4-2.3-2.2-2.5-2.2-5-.6-2.4 1.6-2.5 1.8-1 5.2 4.3 10.3 13.7 16.5 21.3 14 1.8-.6 2.2-.4 2.2 1.2 0 2.9-7.3 6.2-13.8 6.2-8.9 0-21.7-5.8-34.2-15.4-6.6-5.1-9.1-7.5-16.9-16.6-5.4-6.3-13.7-12.8-18-14-2.7-.8-3.3-.6-4.7 1.5-1.4 2.2-1.4 2.6 0 4.7.9 1.3 1.9 2.2 2.1 2 1.5-.8 11.5 6.4 11.5 8.2 0 1.1-8.7-.5-14.4-2.6-2.8-1.1-5.5-2-6.1-2.2-1.9-.4-13-6.4-16.8-9-2.1-1.4-4-2.6-4.2-2.6-.3 0-1.3-.6-2.2-1.4-1-.8-5.4-4.4-9.8-7.9-7.5-6-22.9-20.8-28.5-27.3-2.1-2.5-10.3-12.2-15.8-18.9-1.9-2.4-17-23.2-19.2-26.5-2.1-3.3-11.4-14.1-14.2-16.5-2.5-2.3-13.7-11.6-15.3-12.8-.5-.4-2-1.6-3.3-2.6-1.2-1-3.8-2.9-5.7-4.2-1.9-1.3-3.5-2.7-3.5-3.2 0-.4-.6-.7-1.3-.7-.8 0-2.2-.9-3.2-2s-2.4-2-3.1-2c-.7 0-1.4-.3-1.6-.8-.4-1-9.7-7.2-10.7-7.2-.5 0-1.1-.4-1.3-.8-.5-1.2-8.9-6.3-26.3-15.9-4.4-2.4-8.7-4.8-9.5-5.3-1.6-1.1-6.2-3.1-7-3.2-.3 0-1.7-.9-3.2-1.9-1.4-1-2.9-1.9-3.2-1.9-.2 0-3.8-1.5-7.8-3.4-13.3-6.2-17.2-7.9-25-10.7-16.5-6.1-25.7-11.7-35.9-21.8-7.5-7.6-11.7-13.4-16.5-23.1-3.5-7.2-7.4-19.9-7.8-25.3-.1-1.8-.4-3.7-.7-4.2-.6-1.2-.3-18.8.4-23.5.7-4.3 2-8.5 3.8-12.5 2.1-4.7 12-21 13-21.3.5-.2.9-.8.9-1.4 0-.8 5.7-9.6 9.3-14.3 4.7-6.2 10.7-14.7 10.7-15.2 0-.3.8-1.3 1.8-2.2 1-.9 3.3-3.9 5.2-6.6 1.9-2.8 3.7-5.2 4-5.5.5-.4 1.8-2.9 2.5-5 .1-.3.5-1.2.8-2 2.4-5.5 2.6-15.7.4-25-1.3-5.2-1.9-7.7-2.4-9-.4-.8-.7-1.8-.8-2.3-.2-.4-.4-.9-.5-1.2-.1-.3-.3-.8-.5-1.3-1.2-4.3-14.3-31.5-21.5-44.7-2.3-4.3-7.2-13.4-12.9-24-.9-1.7-2.2-3.8-3-4.8-.8-.9-1.1-1.7-.7-1.7.4 0-.2-1.3-1.3-2.9-1.2-1.6-2.1-3.1-2.1-3.4 0-.3-3.2-6-7-12.8-3.8-6.7-7-12.6-7-12.9 0-.4-.7-1.3-1.5-2s-1.3-1.6-1-2c.3-.4-.3-1.8-1.4-3.1-1-1.3-3.3-5.3-5.2-8.9-1.8-3.6-3.6-6.7-3.9-7-.3-.3-1-1.4-1.6-2.5-1.5-2.7-7.3-13.3-9.5-17.1-3.9-7-4.4-7.9-4.9-8.4-.3-.3-1.2-1.9-2-3.5-.8-1.7-3.1-5.7-5-9-2-3.3-4.7-8.1-6-10.7-2.9-5.7-6.1-7.5-8.4-4.9-.9 1-1.6 2.2-1.6 2.8 0 .7 2.2 5 5 9.8 2.7 4.8 5 8.9 5 9.2 0 .3.8 1.7 1.9 3.1 1 1.5 3.3 5.4 5.1 8.7 1.8 3.3 4.1 7.3 5.1 9 1 1.6 2.4 4.1 3.2 5.5 3.3 6 21.7 38.9 23.7 42.5 1.3 2.2 3.5 6.2 5 9 1.5 2.7 5 9 7.7 14 2.7 4.9 7.1 13 9.8 18 2.6 4.9 6 11.3 7.5 14 4.2 7.5 18 35.2 18 36 0 .4.7 2.3 1.6 4.3 2.5 5.7 3.1 7.4 4.3 12 2.9 10.6 3 19.5.2 25.8-1.5 3.4-11.9 18.4-14.1 20.4-.3.3-3.3 4.3-6.5 9-3.3 4.7-6.3 8.6-6.7 8.8-.4.2-.8.9-.8 1.6 0 .7-.8 2.1-1.8 3.2-.9 1.1-2.2 2.9-2.9 4-.6 1-3.8 6.2-7 11.4-7.3 11.7-10 18-11.6 26.7-1.3 7.2-1.5 23.1-.3 29.8.4 2.2.9 4.9 1.1 6 3.2 17.9 12.7 35.7 26 48.5 8.5 8.2 9.4 9 10.4 9 .5 0 1.1.4 1.3.8.5 1.4 11.9 7.6 19.3 10.6 52.6 20.9 95.8 45.9 130 75 9.7 8.3 12.9 11.7 19.3 21 3.1 4.5 5.9 8.3 6.2 8.6.3.3 1.4 1.8 2.4 3.5 7.7 12.3 35.7 43.8 51.1 57.6 20.9 18.7 47.3 31.7 65 32 5.8.1 6.3.3 11.3 5 10.7 9.9 22.8 17.5 34.1 21.5 8.7 3 20.5 2.9 26.8-.4 2.2-1.2 4.3-2.7 4.5-3.4.3-.8 1.2-.5 2.9 1.1 1.3 1.2 4.7 3.5 7.4 4.9 4.3 2.2 6.2 2.6 13.5 2.6 9.4 0 16.3-2.4 23.7-8.2 2.8-2.2 5.3-3.1 9.3-3.5 3-.4 6.5-.8 7.8-1.1 4-.9 13.9-6.7 17.2-10.1 2.7-2.8 3.6-3.2 5.6-2.5 1.3.5 5.6.8 9.6.7 7.5-.3 14.3-2.7 18.4-6.6 3.2-3.1 6.4-7.1 6.4-8 0-.5.5-1.1 1.1-1.3.5-.2 1.1-1 1.3-1.8.2-.8.8-2.6 1.3-4 .6-1.4 1.3-3.9 1.7-5.6.4-1.8 1.8-3.7 3.4-4.6 11.1-6.6 17.8-19.6 17.1-33-.4-6.7-2.2-9.9-10.6-18.4-11.9-12.1-25.5-21.6-44.8-31.2-7.7-3.8-24.4-10.9-27.5-11.7-7.8-1.9-32.1-12.7-32.8-14.6-.2-.5-.9-.9-1.4-.9-1.8 0-11.9-8-17.1-13.4-4-4.2-11.5-14.7-18.5-26.1-.6-1.1-5.3-10.3-10.3-20.5-16-32.4-26.1-52.5-27.1-53.8-.6-.6-.7-1.2-.2-1.2.5 0 .5-.4-.1-.8-.5-.4-3.3-5.2-6.1-10.8-9.4-18.2-18.5-35.7-29.4-55.9-2-3.9-5.9-11.1-8.5-16-2.6-5-5.1-9.5-5.5-10-.6-.8-6-11-14.2-26.5-2.3-4.4-7.6-13.9-11.6-21-1.8-3-3.7-6.6-4.4-8-.7-1.4-5.3-9.7-10.1-18.5-4.9-8.8-10.1-18.3-11.6-21-1.4-2.8-2.9-5.2-3.3-5.3-.5-.2-.8-1.1-.8-2.1 0-.9-.4-2.1-.8-2.7-1.4-1.5-25.2-61.8-25.2-63.7 0-.3-.5-1.8-1.2-3.4-.6-1.5-1.2-3-1.3-3.3-.1-.3-.5-1.3-.8-2.3-.4-.9-1-2.5-1.4-3.5-.3-.9-.7-1.9-.7-2.2-.1-.6-2.5-6.7-3.6-9.5-1.7-4-32.2-89.3-37.7-105.5-.8-2.5-1.9-5.4-2.3-6.5-.5-1.1-1.4-3.8-2.1-6-.6-2.2-1.5-4.4-2-5-.5-.5-.9-1.9-.9-3.1 0-1.3-.4-2.6-1-2.9-.5-.3-1-1.6-1-2.9 0-1.2-.4-2.6-.8-3.2-.4-.5-1.4-2.7-2.1-4.9-.8-2.2-1.9-4.3-2.5-4.7-1.9-1.3-4.5-.9-5.4.9z"/>
    <path d="M152.3 151.7c-.7.2-1.3 1.5-1.3 2.7 0 1.7 13 34.7 17 43.1.5 1.1 3 7.2 5.6 13.5 2.5 6.3 5.3 12.8 6.1 14.5.8 1.6 1.6 3.7 1.9 4.5.2.8 3.3 8.8 6.9 17.6 5.9 14.5 10.6 29.8 12.1 39.3.3 1.8.8 4.3 1 5.5.2 1.1.7 4.1 1 6.6.3 2.5.7 5.6 1 7 .2 1.4.7 7.9 1 14.5 1.1 22.6 2.1 34.3 3.9 43.4 1.6 8.2 8.8 21.2 15.1 27.4 8.8 8.4 14.7 12.7 29.9 21.7 13.3 7.9 27.6 17.4 32.7 21.9 4.5 4 6.8 4.5 9 2.3 2-2-1.6-7.2-8.8-12.6-6-4.4-33-21.6-33.9-21.6-.8 0-9.2-5.6-13.1-8.6-15.3-11.9-22.6-23.6-24-38.4-.3-3-.7-6.6-1-8-.2-1.4-.6-6.8-.9-12-1.5-27.6-2.2-35-4.1-45-.7-4.1-1.6-9-1.9-10.7-1.6-9.8-8.9-31.5-15.5-45.8-.5-1.1-3-7.2-5.6-13.5-2.5-6.3-5.4-13.3-6.4-15.5-.9-2.2-3-7.1-4.5-10.9-1.5-3.8-3.1-7.7-3.5-8.5-1.1-2.2-3.3-7.4-3.6-8.6-1-3.4-10.1-24.2-11-25.3-1.3-1.2-3-1.4-5.1-.5zM554.9 190.4c-6.9 2.6-11.6 5.5-14.7 9.1-8.4 9.5-10.8 21.3-6.8 33.8 1.4 4.2 3.3 7.2 7.2 11.2 5.7 5.8 8.3 7.2 20.9 11.2 18.5 5.8 41.6 16.1 58.1 25.9 7.7 4.5 15.5 9.5 16.4 10.4.3.3 2.8 2.1 5.5 3.9 15 10.4 39.6 32.7 51.9 47.1 10.5 12.3 25.1 33.1 32.8 46.5 9.7 17.2 21.7 45.5 25.8 61.2 1 4 2.1 7.7 2.4 8.1.6 1.1 5 22.4 6.1 30.2.3 1.9.8 4.4 1 5.6 2.6 11.9 2.6 58.6 0 76.4-2.3 16.4-4.5 27.4-7.6 38.5-1.1 3.8-2.2 7.7-2.4 8.5-.1.8-1.3 4.2-2.5 7.5-1.1 3.3-2.3 6.7-2.5 7.6-1.4 6.5-16.3 37.5-24.1 50.4-5.5 9-16.1 24.6-19.6 28.7-1.3 1.5-3.4 4.1-4.8 5.9-10.8 14-36.9 39.2-49.3 47.6-2.3 1.5-4.4 3.1-4.7 3.4-.3.3-4.3 3.2-9 6.3-4.7 3.1-9 6-9.7 6.6-.7.5-1.5 1-1.8 1-.3 0-2.4 1.2-4.8 2.7-5.5 3.5-31.1 16.3-32.6 16.3-.6 0-1.9.4-2.9 1-2.2 1.3-16.8 6.9-19 7.4-.9.1-2.4.6-3.2.9-3.2 1.2-11.6 3.7-14 4.1-1.4.3-2.5.5-2.5.6 0 .1-1.1.4-2.5.6-1.4.3-4.1.9-6 1.4-1.9.5-4.8 1.2-6.5 1.4-1.6.3-4.1.8-5.5 1.1-1.4.3-4.5.8-7 1.1-2.5.3-5.8.8-7.5 1.1-13.7 2.3-70.5 2.2-74.5-.2-.3-.1-2.7-.6-5.5-1-9.8-1.3-10.4-1.4-22.5-4.1-5.1-1.1-16.6-4.3-19.2-5.3-1.6-.6-2.8-.8-2.8-.5 0 .4-.6.2-1.2-.3-.7-.5-4-1.8-7.3-2.8-3.3-1-6.4-2.1-7-2.5-.5-.4-2.1-1.1-3.5-1.5-6.1-1.8-27.9-12.3-36.9-17.7-3.4-2.1-6.5-3.8-6.7-3.8-.9 0-18.9-12.4-19.2-13.2-.2-.4-.8-.8-1.3-.8-2.1 0-22-17-34.5-29.5-13.8-13.8-25.5-27.9-35.7-42.9-7.3-10.8-7.6-11.2-15.1-25.2-8-14.9-11.1-19.4-15.7-22.7-2.1-1.5-4-2.7-4.2-2.5-.2.2-1.2-.4-2.1-1.2-1-.8-2.3-1.5-3-1.6-.6-.1-2.7-.5-4.6-.9-14.5-2.9-28.9 4.6-35.8 18.5-2.3 4.7-2.7 6.8-2.7 14 0 8.2.2 8.9 5 18.5 8.2 16.7 26.5 46 35 56.3.8 1 2.8 3.5 4.5 5.7 12.2 15.6 27.9 32.2 42.5 45 4.4 3.8 8.2 7.2 8.5 7.5.3.3 2.5 2.1 5 4s4.7 3.7 5 4c2.7 3.2 38.7 27 40.8 27 .7 0 1.2.4 1.2 1 0 .5.6 1 1.3 1 .7 0 2.9 1.1 4.9 2.5 2 1.4 4.4 2.5 5.2 2.5.8 0 1.6.4 1.8.8.4 1 15.4 8.3 25.8 12.4 4.1 1.7 8.9 3.6 10.5 4.3 3.7 1.7 21 7.5 23.6 8 1 .2 2.3.6 2.7.9.9.5 22.4 6.1 27.5 7.1 1.5.3 3.7.7 5 1 5.1 1 8.4 1.6 12.2 2.1 2.2.3 5.1.7 6.5 1 1.4.2 4.5.6 7 .9 2.5.3 6.5.8 9 1.1 5.8.8 60.2 1.3 61.4.6.8-.5 8.5-1.2 16.4-1.6 1.2-.1 2.2-.3 2.2-.6s1.5-.5 3.3-.6c2.9-.1 6.3-.6 12.3-1.8 1.2-.2 3.8-.7 5.7-1 2-.3 8.5-1.7 14.4-3.2 5.9-1.4 11.5-2.7 12.3-2.9 1.5-.3 6.5-1.8 18-5.5 46.8-15 93.1-42.6 132.3-79 5.6-5.2 9.7-9.3 19.7-20 5.8-6.2 19.9-23.4 24.1-29.5 1.9-2.8 3.6-5.2 3.9-5.5 5.9-5.9 25.9-41.4 35-62 8-18.2 18.2-48.7 20.3-61 .3-1.4 1-4.3 1.5-6.5.6-2.2 1.3-5.7 1.6-7.9.4-2.1.8-4.1 1-4.5.2-.3.6-2.9 1-5.6.3-2.8.8-6.1 1.1-7.5 1.7-9.3 3.6-36.1 3.5-50.5-.1-10.6-.9-29.2-1.5-33.9-.3-2.2-.8-6.1-1-8.6-.3-2.5-.8-6.1-1.1-8-.2-1.9-.7-5.1-1-7-.3-1.9-.7-4.4-.8-5.5-.2-1.1-.6-3.1-.9-4.5-.4-1.4-.9-3.6-1.1-5-1.2-6.8-1.8-9.6-2.4-11-.3-.8-.7-2.6-.8-3.9-.2-1.3-.6-3.1-1-4-.4-.9-.9-2.5-1.1-3.6-.2-1.1-.8-3.1-1.3-4.5s-1.1-3.4-1.3-4.5c-.5-2.4-1.5-5.4-2.8-7.7-.5-1-.9-2.6-.9-3.6s-.9-3.7-2-6c-1.1-2.2-2-4.8-2-5.6 0-.8-.4-1.8-1-2.1-.5-.3-1-1.3-1-2 0-.8-1.3-4.4-3-8-1.6-3.6-3-6.8-3-7 0-2-14.2-28.9-21.2-40.2-2.9-4.7-5.7-9.2-6.3-10.1-2.4-4-18.6-26.3-20.5-28.2-.3-.3-3-3.4-6-7-9.4-11.3-26.7-28.9-36-36.8-1.9-1.7-4.8-4.2-6.5-5.7-3.2-2.8-24.5-18.9-28.4-21.5-1.3-.8-4-2.6-6-4-3-2.2-15.1-9.5-22.6-13.6-4.4-2.5-22.3-11.4-28-13.9-3.3-1.4-6.9-3-8-3.5-4.5-2.1-20.7-8-29.6-10.7-10.5-3.3-19.5-3.9-25-1.9z"/>
</svg>